<svg width="20" height="20" viewBox="0 0 20 20" fill="none" xmlns="http://www.w3.org/2000/svg">
<path d="M4.78125 11.25L10.9062 17.375C11.1562 17.625 11.276 17.9167 11.2656 18.25C11.2552 18.5833 11.125 18.875 10.875 19.125C10.625 19.3542 10.3333 19.474 10 19.4844C9.66667 19.4948 9.375 19.375 9.125 19.125L0.875 10.875C0.75 10.75 0.661458 10.6146 0.609375 10.4688C0.557292 10.3229 0.53125 10.1667 0.53125 10C0.53125 9.83333 0.557292 9.67708 0.609375 9.53125C0.661458 9.38542 0.75 9.25 0.875 9.125L9.125 0.875C9.35417 0.645833 9.64062 0.53125 9.98438 0.53125C10.3281 0.53125 10.625 0.645833 10.875 0.875C11.125 1.125 11.25 1.42188 11.25 1.76562C11.25 2.10938 11.125 2.40625 10.875 2.65625L4.78125 8.75H18.75C19.1042 8.75 19.401 8.86979 19.6406 9.10938C19.8802 9.34896 20 9.64583 20 10C20 10.3542 19.8802 10.651 19.6406 10.8906C19.401 11.1302 19.1042 11.25 18.75 11.25H4.78125Z" fill="#EDEDED"/>
</svg>
